<svg width="42" height="42" viewBox="0 0 42 42" fill="none" xmlns="http://www.w3.org/2000/svg">
<rect width="42" height="42" fill="#E5E5E5"/>
<g clip-path="url(#clip0)">
<rect width="1433" height="1024" transform="translate(-977 -104)" fill="white"/>
<rect x="-877" y="29" width="1240" height="313" rx="5" fill="#FAFAFA"/>
<rect x="-984" y="-104" width="1440" height="1024" fill="#C4C4C4" fill-opacity="0.4"/>
<g filter="url(#filter0_d)">
<rect x="-592" y="-35" width="669" height="900" rx="5" fill="#DB8876"/>
<path d="M42 4.23L37.77 0L21 16.77L4.23 0L0 4.23L16.77 21L0 37.77L4.23 42L21 25.23L37.77 42L42 37.77L25.23 21L42 4.23Z" fill="white"/>
</g>
<rect x="-699" y="-47" width="811" height="935" stroke="#95FFF9" stroke-width="2"/>
</g>
<defs>
<filter id="filter0_d" x="-627" y="-55" width="729" height="960" filterUnits="userSpaceOnUse" color-interpolation-filters="sRGB">
<feFlood flood-opacity="0" result="BackgroundImageFix"/>
<feColorMatrix in="SourceAlpha" type="matrix" values="0 0 0 0 0 0 0 0 0 0 0 0 0 0 0 0 0 0 127 0" result="hardAlpha"/>
<feOffset dx="-5" dy="10"/>
<feGaussianBlur stdDeviation="15"/>
<feColorMatrix type="matrix" values="0 0 0 0 0 0 0 0 0 0 0 0 0 0 0 0 0 0 0.25 0"/>
<feBlend mode="normal" in2="BackgroundImageFix" result="effect1_dropShadow"/>
<feBlend mode="normal" in="SourceGraphic" in2="effect1_dropShadow" result="shape"/>
</filter>
<clipPath id="clip0">
<rect width="1433" height="1024" fill="white" transform="translate(-977 -104)"/>
</clipPath>
</defs>
</svg>
